<svg width="84" height="16" viewBox="0 0 84 16" fill="none" xmlns="http://www.w3.org/2000/svg">
<path d="M7.99998 0L10.472 5.00778L16 5.81574L12 9.71157L12.944 15.2153L7.99998 12.6154L3.05599 15.2153L3.99999 9.71157L0 5.81574L5.52799 5.00778L7.99998 0Z" fill="#C72535"/>
<path d="M25 0L27.472 5.00778L33 5.81574L29 9.71157L29.944 15.2153L25 12.6154L20.056 15.2153L21 9.71157L17 5.81574L22.528 5.00778L25 0Z" fill="#C72535"/>
<path d="M42 0L44.472 5.00778L50 5.81574L46 9.71157L46.944 15.2153L42 12.6154L37.056 15.2153L38 9.71157L34 5.81574L39.528 5.00778L42 0Z" fill="#C72535"/>
<path d="M59 0L61.472 5.00778L67 5.81574L63 9.71157L63.944 15.2153L59 12.6154L54.056 15.2153L55 9.71157L51 5.81574L56.528 5.00778L59 0Z" fill="#C72535"/>
<path d="M76 0L78.472 5.00778L84 5.81574L80 9.71157L80.944 15.2153L76 12.6154L71.056 15.2153L72 9.71157L68 5.81574L73.528 5.00778L76 0Z" fill="#F4F9FC"/>
</svg>
