<svg width="84" height="16" viewBox="0 0 84 16" fill="none" xmlns="http://www.w3.org/2000/svg">
<path d="M8.00003 -0.000976562L10.472 5.00713L16.0001 5.81514L12 9.71122L12.944 15.2153L8.00003 12.6153L3.05601 15.2153L4.00002 9.71122L0 5.81514L5.52802 5.00713L8.00003 -0.000976562Z" fill="#C72535"/>
<path d="M25 -0.000976562L27.472 5.00713L32.9999 5.81514L29 9.71122L29.944 15.2153L25 12.6153L20.056 15.2153L21 9.71122L17 5.81514L22.528 5.00713L25 -0.000976562Z" fill="#C72535"/>
<path d="M41.9999 -0.000976562L44.4719 5.00713L49.9999 5.81514L45.9999 9.71122L46.9439 15.2153L41.9999 12.6153L37.0559 15.2153L37.9999 9.71122L33.9999 5.81514L39.5279 5.00713L41.9999 -0.000976562Z" fill="#C72535"/>
<path d="M58.9999 -0.000976562L61.4719 5.00713L66.9999 5.81514L62.9999 9.71122L63.9439 15.2153L58.9999 12.6153L54.0559 15.2153L54.9999 9.71122L50.9999 5.81514L56.5279 5.00713L58.9999 -0.000976562Z" fill="#C72535"/>
<path d="M75.9999 -0.000976562L78.4719 5.00713L83.9999 5.81514L79.9999 9.71122L80.9439 15.2153L75.9999 12.6153L71.0559 15.2153L71.9999 9.71122L67.9999 5.81514L73.5279 5.00713L75.9999 -0.000976562Z" fill="#C72535"/>
</svg>
