<svg width="23" height="21" viewBox="0 0 23 21" fill="none" xmlns="http://www.w3.org/2000/svg">
<path d="M20.2913 2.61148C19.7805 2.10044 19.1741 1.69504 18.5066 1.41846C17.8392 1.14187 17.1238 0.999512 16.4013 0.999512C15.6788 0.999512 14.9634 1.14187 14.2959 1.41846C13.6284 1.69504 13.022 2.10044 12.5113 2.61148L11.4513 3.67157L10.3913 2.61148C9.35956 1.5797 7.96028 1.00005 6.50124 1.00005C5.04221 1.00005 3.64293 1.5797 2.61123 2.61148C1.57954 3.64326 0.999939 5.04265 0.999939 6.50181C0.999939 7.96097 1.57954 9.36037 2.61123 10.3921L3.67124 11.4522L11.4513 19.2329L19.2313 11.4522L20.2913 10.3921C20.8023 9.88135 21.2076 9.27487 21.4842 8.60735C21.7608 7.93983 21.9031 7.22436 21.9031 6.50181C21.9031 5.77926 21.7608 5.06379 21.4842 4.39628C21.2076 3.72876 20.8023 3.12228 20.2913 2.61148V2.61148Z" stroke="#030D15" stroke-width="2" stroke-linecap="round" stroke-linejoin="round"/>
</svg>
