<svg width="17" height="16" viewBox="0 0 17 16" fill="none" xmlns="http://www.w3.org/2000/svg">
<path d="M11.1408 5.5C12.3343 5.5 13.4788 5.97413 14.3227 6.81809C15.1666 7.66204 15.6407 8.80669 15.6407 10.0002V15.2505H12.6408V10.0002C12.6408 9.60238 12.4828 9.22083 12.2015 8.93951C11.9202 8.65819 11.5386 8.50015 11.1408 8.50015C10.743 8.50015 10.3615 8.65819 10.0802 8.93951C9.79886 9.22083 9.64083 9.60238 9.64083 10.0002V15.2505H6.64087V10.0002C6.64087 8.80669 7.11497 7.66204 7.95887 6.81809C8.80277 5.97413 9.94735 5.5 11.1408 5.5V5.5Z" stroke="white" stroke-linecap="round" stroke-linejoin="round"/>
<path d="M3.64062 6.25H0.640625V15.2505H3.64062V6.25Z" stroke="white" stroke-linecap="round" stroke-linejoin="round"/>
<path d="M2.14062 4C2.96905 4 3.64062 3.32843 3.64062 2.5C3.64062 1.67157 2.96905 1 2.14062 1C1.3122 1 0.640625 1.67157 0.640625 2.5C0.640625 3.32843 1.3122 4 2.14062 4Z" stroke="white" stroke-linecap="round" stroke-linejoin="round"/>
</svg>
