<svg width="17" height="17" viewBox="0 0 17 17" fill="none" xmlns="http://www.w3.org/2000/svg">
<path d="M12.5 1.00098H5C2.92893 1.00098 1.25 2.67991 1.25 4.75098V12.251C1.25 14.322 2.92893 16.001 5 16.001H12.5C14.5711 16.001 16.25 14.322 16.25 12.251V4.75098C16.25 2.67991 14.5711 1.00098 12.5 1.00098Z" stroke="white" stroke-linecap="round" stroke-linejoin="round"/>
<path d="M11.75 8.02744C11.8426 8.65168 11.736 9.28921 11.4453 9.84935C11.1547 10.4095 10.6949 10.8637 10.1312 11.1474C9.5676 11.4312 8.92886 11.5299 8.30586 11.4297C7.68287 11.3294 7.10734 11.0352 6.66115 10.589C6.21496 10.1428 5.92082 9.56722 5.82058 8.94418C5.72033 8.32113 5.81907 7.68234 6.10277 7.11865C6.38646 6.55497 6.84066 6.09509 7.40076 5.80445C7.96086 5.5138 8.59834 5.40717 9.22252 5.49974C9.85921 5.59416 10.4487 5.89087 10.9038 6.34604C11.3589 6.80121 11.6556 7.3907 11.75 8.02744Z" stroke="white" stroke-linecap="round" stroke-linejoin="round"/>
<path d="M12.875 4.37451H12.8824" stroke="white" stroke-linecap="round" stroke-linejoin="round"/>
</svg>
