<svg width="79" height="23" viewBox="0 0 79 23" fill="none" xmlns="http://www.w3.org/2000/svg">
<path d="M28.7673 16H23.3213V6.564H28.6973V7.768H24.7633V10.68H28.2493V11.884H24.7633V14.796H28.7673V16ZM36.3227 16H34.9507V11.52C34.9507 11.0253 34.8247 10.6473 34.5727 10.386C34.3301 10.1247 34.0034 9.994 33.5927 9.994C33.1074 9.994 32.6921 10.1853 32.3467 10.568C32.0014 10.9413 31.8287 11.4687 31.8287 12.15V16H30.4567V8.902H31.8287V10.12C32.2487 9.24267 32.9861 8.804 34.0407 8.804C34.7407 8.804 35.2961 9.01867 35.7067 9.448C36.1174 9.87733 36.3227 10.4607 36.3227 11.198V16ZM44.1457 15.398C44.1457 16.49 43.833 17.3113 43.2077 17.862C42.5917 18.422 41.7983 18.702 40.8277 18.702C39.913 18.702 39.143 18.548 38.5177 18.24V16.854C39.115 17.246 39.8383 17.442 40.6877 17.442C42.0783 17.442 42.7737 16.756 42.7737 15.384V14.656C42.3163 15.4213 41.6303 15.804 40.7157 15.804C39.913 15.804 39.227 15.51 38.6577 14.922C38.0883 14.3247 37.8037 13.4847 37.8037 12.402C37.8037 11.3567 38.0697 10.498 38.6017 9.826C39.1337 9.14467 39.8383 8.804 40.7157 8.804C41.6583 8.804 42.3443 9.20533 42.7737 10.008V8.902H44.1457V15.398ZM39.2457 12.374C39.2457 13.1113 39.4137 13.6713 39.7497 14.054C40.095 14.4367 40.501 14.628 40.9677 14.628C41.453 14.628 41.873 14.4413 42.2277 14.068C42.5917 13.6853 42.7737 13.1533 42.7737 12.472C42.7737 11.632 42.601 11.0113 42.2557 10.61C41.9197 10.2087 41.509 10.008 41.0237 10.008C40.473 10.008 40.039 10.2273 39.7217 10.666C39.4043 11.0953 39.2457 11.6647 39.2457 12.374ZM47.43 16H46.044V6.102H47.43V16ZM50.8616 16H49.4756V8.902H50.8616V16ZM51.0296 6.732C51.0296 6.96533 50.9456 7.166 50.7776 7.334C50.6096 7.502 50.4043 7.586 50.1616 7.586C49.9189 7.586 49.7136 7.50667 49.5456 7.348C49.3869 7.18 49.3076 6.97467 49.3076 6.732C49.3076 6.48933 49.3869 6.284 49.5456 6.116C49.7136 5.948 49.9189 5.864 50.1616 5.864C50.4043 5.864 50.6096 5.948 50.7776 6.116C50.9456 6.284 51.0296 6.48933 51.0296 6.732ZM57.2893 14.04C57.2893 14.6747 57.0653 15.174 56.6173 15.538C56.1693 15.8927 55.5626 16.07 54.7973 16.07C53.9573 16.07 53.2573 15.93 52.6973 15.65V14.348C53.3506 14.7493 54.0273 14.95 54.7273 14.95C55.0913 14.95 55.3713 14.8753 55.5673 14.726C55.7726 14.5767 55.8753 14.3807 55.8753 14.138C55.8753 13.9327 55.7959 13.7507 55.6373 13.592C55.4786 13.424 55.3153 13.3027 55.1473 13.228C54.9886 13.144 54.7133 13.018 54.3213 12.85C53.2106 12.3927 52.6553 11.7207 52.6553 10.834C52.6553 10.2087 52.8886 9.71867 53.3553 9.364C53.8219 9.00933 54.4053 8.832 55.1053 8.832C55.8706 8.832 56.4679 8.93467 56.8973 9.14V10.386C56.4399 10.1153 55.8519 9.98 55.1333 9.98C54.8066 9.98 54.5453 10.0547 54.3493 10.204C54.1626 10.3533 54.0693 10.5493 54.0693 10.792C54.0693 10.8573 54.0739 10.9227 54.0833 10.988C54.1019 11.044 54.1299 11.1047 54.1673 11.17C54.2046 11.226 54.2373 11.2773 54.2653 11.324C54.3026 11.3613 54.3586 11.4033 54.4333 11.45C54.5079 11.4967 54.5639 11.5387 54.6013 11.576C54.6479 11.604 54.7179 11.6413 54.8113 11.688C54.9139 11.7347 54.9886 11.772 55.0353 11.8C55.0819 11.8187 55.1613 11.856 55.2733 11.912C55.3946 11.9587 55.4786 11.9913 55.5253 12.01C56.0759 12.2527 56.5053 12.528 56.8133 12.836C57.1306 13.1347 57.2893 13.536 57.2893 14.04ZM64.5825 16H63.2105V11.52C63.2105 11.0347 63.0845 10.6613 62.8325 10.4C62.5898 10.1293 62.2678 9.994 61.8665 9.994C61.3998 9.994 60.9845 10.1713 60.6205 10.526C60.2658 10.8807 60.0885 11.422 60.0885 12.15V16H58.7165V6.102H60.0885V10.12C60.4898 9.24267 61.2225 8.804 62.2865 8.804C62.9772 8.804 63.5325 9.01867 63.9525 9.448C64.3725 9.87733 64.5825 10.4747 64.5825 11.24V16Z" fill="white"/>
<path d="M7.01917 17.9995C10.3436 17.9995 13.0386 15.0893 13.0386 11.4993C13.0386 7.90928 10.3436 4.99902 7.01917 4.99902C3.69474 4.99902 0.999756 7.90928 0.999756 11.4993C0.999756 15.0893 3.69474 17.9995 7.01917 17.9995Z" stroke="white" stroke-linecap="round" stroke-linejoin="round"/>
<path d="M0.999756 11.501H13.0386" stroke="white" stroke-linecap="round" stroke-linejoin="round"/>
<path d="M7.01935 4.99902C8.52498 6.77902 9.38063 9.089 9.42712 11.4993C9.38063 13.9095 8.52498 16.2195 7.01935 17.9995C5.51372 16.2195 4.65807 13.9095 4.61157 11.4993C4.65807 9.089 5.51372 6.77902 7.01935 4.99902V4.99902Z" stroke="white" stroke-linecap="round" stroke-linejoin="round"/>
<path d="M70 10.0005L74 14.0005L78 10.0005" stroke="white" stroke-linecap="round" stroke-linejoin="round"/>
</svg>
