<svg width="24" height="22" viewBox="0 0 24 22" fill="none" xmlns="http://www.w3.org/2000/svg">
<path d="M1 1.00049H4.99999L7.67999 14.3902C7.77144 14.8505 8.0219 15.2641 8.38754 15.5584C8.75317 15.8528 9.21069 16.0091 9.67999 16.0001H19.4C19.8693 16.0091 20.3268 15.8528 20.6924 15.5584C21.0581 15.2641 21.3085 14.8505 21.4 14.3902L23 6.00037H5.99999" stroke="#030D15" stroke-width="2" stroke-linecap="round" stroke-linejoin="round"/>
<path d="M9 21.0005C9.55228 21.0005 10 20.5528 10 20.0005C10 19.4482 9.55228 19.0005 9 19.0005C8.44772 19.0005 8 19.4482 8 20.0005C8 20.5528 8.44772 21.0005 9 21.0005Z" stroke="#030D15" stroke-width="2" stroke-linecap="round" stroke-linejoin="round"/>
<path d="M20 21.0005C20.5523 21.0005 21 20.5528 21 20.0005C21 19.4482 20.5523 19.0005 20 19.0005C19.4477 19.0005 19 19.4482 19 20.0005C19 20.5528 19.4477 21.0005 20 21.0005Z" stroke="#030D15" stroke-width="2" stroke-linecap="round" stroke-linejoin="round"/>
</svg>
