<svg width="130" height="55" viewBox="0 0 130 55" fill="none" xmlns="http://www.w3.org/2000/svg">
<path d="M37.904 32H35.888L32.724 22.564H34.642L35.804 26.316C36.0374 27.0627 36.2474 27.7767 36.434 28.458C36.6207 29.1393 36.7514 29.634 36.826 29.942L36.924 30.404C37.148 29.3587 37.526 27.996 38.058 26.316L39.234 22.564H41.124L37.904 32ZM44.3492 32H42.5852V22.564H44.3492V32ZM52.0523 32H46.4243V22.564H51.9963V24.006H48.2023V26.568H51.5763V27.996H48.2023V30.558H52.0523V32ZM57.7408 32H55.7108L53.1908 22.564H55.0528L55.9348 26.05C56.0842 26.6753 56.2335 27.324 56.3828 27.996C56.5322 28.668 56.6442 29.1813 56.7188 29.536L56.8308 30.082C57.1295 28.906 57.4935 27.562 57.9228 26.05L58.8748 22.704H60.3028L61.2688 26.05L62.3888 30.11C62.6222 28.8127 62.9115 27.4547 63.2568 26.036L64.1108 22.564H65.9028L63.4948 32H61.4508L60.5968 29.018C60.3635 28.2247 60.1628 27.5247 59.9948 26.918C59.8362 26.3113 59.7288 25.9053 59.6728 25.7L59.6028 25.378C59.4722 26.0313 59.1455 27.2447 58.6228 29.018L57.7408 32ZM73.1299 28.01L73.0039 28.416H75.6639L75.5379 27.996C75.2205 26.988 74.9592 26.1433 74.7539 25.462C74.5579 24.7713 74.4365 24.3373 74.3899 24.16L74.3339 23.88C74.2499 24.3467 73.8485 25.7233 73.1299 28.01ZM71.8699 32H70.0219L73.2139 22.564H75.4959L78.6879 32H76.7839L76.1119 29.858H72.5419L71.8699 32ZM85.4895 32H80.0435V22.564H81.8075V30.432H85.4895V32ZM92.2707 32H86.8247V22.564H88.5887V30.432H92.2707V32Z" fill="#030D15"/>
<g opacity="0.6">
<path d="M103 27.0894L128.414 27.0894" stroke="#030D15" stroke-linecap="round" stroke-linejoin="round"/>
<path d="M123.917 22L129 27.0825L123.917 32.165" stroke="#030D15" stroke-linecap="round" stroke-linejoin="round"/>
</g>
</svg>
