<svg width="21" height="17" viewBox="0 0 21 17" fill="none" xmlns="http://www.w3.org/2000/svg">
<path d="M19.6406 1.00938C18.8401 1.57405 17.9538 2.00593 17.0157 2.28838C16.5123 1.7095 15.8432 1.2992 15.0989 1.11298C14.3547 0.926758 13.5712 0.9736 12.8545 1.24717C12.1377 1.52074 11.5223 2.00784 11.0914 2.64259C10.6605 3.27734 10.4349 4.02911 10.4452 4.79623V5.63218C8.97612 5.67027 7.52044 5.34446 6.20777 4.68375C4.89511 4.02304 3.76623 3.04796 2.92165 1.84533C2.92165 1.84533 -0.422141 9.36887 7.1014 12.7127C5.37978 13.8813 3.32889 14.4673 1.24976 14.3846C8.77329 18.5643 17.9687 14.3846 17.9687 4.77115C17.968 4.5383 17.9456 4.30603 17.9019 4.07731C18.755 3.23593 19.3571 2.17362 19.6406 1.00938V1.00938Z" stroke="white" stroke-linecap="round" stroke-linejoin="round"/>
</svg>
