<svg width="20" height="15" viewBox="0 0 20 15" fill="none" xmlns="http://www.w3.org/2000/svg">
<path d="M18.2638 2.979C18.1666 2.5907 17.9687 2.23493 17.69 1.94762C17.4113 1.6603 17.0618 1.45162 16.6766 1.34266C15.2694 0.999024 9.64062 0.999023 9.64062 0.999023C9.64062 0.999023 4.01183 0.999023 2.60463 1.37538C2.21949 1.48435 1.86992 1.69303 1.59124 1.98034C1.31255 2.26766 1.11462 2.62343 1.01744 3.01172C0.759898 4.43989 0.633922 5.88867 0.641093 7.33985C0.631913 8.80196 0.757897 10.2618 1.01744 11.7007C1.12458 12.0769 1.32694 12.4192 1.60498 12.6944C1.88301 12.9695 2.22732 13.1683 2.60463 13.2716C4.01183 13.648 9.64062 13.6479 9.64062 13.6479C9.64062 13.6479 15.2694 13.648 16.6766 13.2716C17.0618 13.1626 17.4113 12.9539 17.69 12.6666C17.9687 12.3793 18.1666 12.0235 18.2638 11.6352C18.5194 10.2178 18.6453 8.78011 18.6402 7.33985C18.6493 5.87774 18.5234 4.41791 18.2638 2.979V2.979Z" stroke="white" stroke-linecap="round" stroke-linejoin="round"/>
<path d="M7.80005 10.0151L12.5043 7.33984L7.80005 4.66455V10.0151Z" stroke="white" stroke-linecap="round" stroke-linejoin="round"/>
</svg>
